HIERARCHY
ROOT root
{
	OFFSET	0	13.1	24.9
	CHANNELS 6  Xposition Yposition Zposition Xrotation Yrotation Zrotation
	JOINT spine_1
	{
		OFFSET	0	9.99999	0
		CHANNELS 3  Xrotation Yrotation Zrotation
		JOINT spine_2
		{
			OFFSET	0	112	-10
			CHANNELS 3  Xrotation Yrotation Zrotation
			JOINT spine_3
			{
				OFFSET	0	206.5	19.3
				CHANNELS 3  Xrotation Yrotation Zrotation
				JOINT spine_4
				{
					OFFSET	0	110.4	14.6
					CHANNELS 3  Xrotation Yrotation Zrotation
					JOINT neck_1
					{
						OFFSET	0	71.8	-50.3
						CHANNELS 3  Xrotation Yrotation Zrotation
						JOINT neck_2
						{
							OFFSET	0	86.2	-25.8
							CHANNELS 3  Xrotation Yrotation Zrotation
							JOINT head_ee
							{
								OFFSET	0	179.8	-8.7
								CHANNELS 3  Xrotation Yrotation Zrotation
								End Site
								{
									OFFSET	1	0	0
								}
							}
						}
					}
					JOINT left_clavicle
					{
						OFFSET	-43.2	22.4	-70.8
						CHANNELS 3  Xrotation Yrotation Zrotation
						JOINT left_shoulder
						{
							OFFSET	-93.9	-5.79999	48.7
							CHANNELS 3  Xrotation Yrotation Zrotation
							JOINT left_elbow
							{
								OFFSET	-291.4	-30.8	15.2
								CHANNELS 3  Xrotation Yrotation Zrotation
								JOINT left_lowarm_twist
								{
									OFFSET	-110.7	-3.89999	13.6
									CHANNELS 3  Xrotation Yrotation Zrotation
									JOINT left_hand
									{
										OFFSET	-110.7	-3.89999	13.6
										CHANNELS 3  Xrotation Yrotation Zrotation
										JOINT left_ee
										{
											OFFSET	-80.8	-5.10001	12.1
											CHANNELS 3  Xrotation Yrotation Zrotation
											End Site
											{
												OFFSET	1	0	0
											}
										}
									}
								}
							}
						}
					}
					JOINT right_clavicle
					{
						OFFSET	43.2	22.4	-70.8
						CHANNELS 3  Xrotation Yrotation Zrotation
						JOINT right_shoulder
						{
							OFFSET	93.9	-5.79999	48.7
							CHANNELS 3  Xrotation Yrotation Zrotation
							JOINT right_elbow
							{
								OFFSET	291.4	-30.8	15.2
								CHANNELS 3  Xrotation Yrotation Zrotation
								JOINT right_lowarm_twist
								{
									OFFSET	110.7	-3.89999	13.6
									CHANNELS 3  Xrotation Yrotation Zrotation
									JOINT right_hand
									{
										OFFSET	110.7	-3.89999	13.6
										CHANNELS 3  Xrotation Yrotation Zrotation
										JOINT right_ee
										{
											OFFSET	80.8	-5.10001	12.1
											CHANNELS 3  Xrotation Yrotation Zrotation
											End Site
											{
												OFFSET	1	0	0
											}
										}
									}
								}
							}
						}
					}
				}
			}
		}
	}
	JOINT left_hip
	{
		OFFSET	-82.8	-127.5	0.300001
		CHANNELS 3  Xrotation Yrotation Zrotation
		JOINT left_knee
		{
			OFFSET	-28.2	-396.7	2.2
			CHANNELS 3  Xrotation Yrotation Zrotation
			JOINT left_ankle
			{
				OFFSET	-11.7	-411.3	35.4
				CHANNELS 3  Xrotation Yrotation Zrotation
				JOINT left_toes
				{
					OFFSET	0	-60	-88.6
					CHANNELS 3  Xrotation Yrotation Zrotation
					JOINT left_foot_ee
					{
						OFFSET	-22.5	-16.5	-42.2
						CHANNELS 3  Xrotation Yrotation Zrotation
						End Site
						{
							OFFSET	1	0	0
						}
					}
				}
			}
		}
	}
	JOINT right_hip
	{
		OFFSET	82.8	-127.5	0.300001
		CHANNELS 3  Xrotation Yrotation Zrotation
		JOINT right_knee
		{
			OFFSET	28.2	-396.7	2.2
			CHANNELS 3  Xrotation Yrotation Zrotation
			JOINT right_ankle
			{
				OFFSET	11.7	-411.3	35.4
				CHANNELS 3  Xrotation Yrotation Zrotation
				JOINT right_toes
				{
					OFFSET	0	-60	-88.6
					CHANNELS 3  Xrotation Yrotation Zrotation
					JOINT right_foot_ee
					{
						OFFSET	22.5	-16.5	-42.2
						CHANNELS 3  Xrotation Yrotation Zrotation
						End Site
						{
							OFFSET	1	0	0
						}
					}
				}
			}
		}
	}
}
MOTION
Frames: 12
Frame Time: 0.02
2791.14356884 707.557 -1604.14633584 17.6888673126 69.3971185382 -15.7817961276 -2.02894 0.155487 0.969462 -2.02842 0.0934851 0.97739 -2.02626 -0.148447 0.970565 -2.02757 0.00669148 0.981828 -19.2186 5.38843 4.93223 -19.2275 7.81168 6.75864 -0.0 0.0 -0.0 2.55141 2.46473 5.09495 -2.41303 -18.0976 55.2268 1.24048 -31.5692 0.350672 -83.8523 -8.30816 5.21133 4.46661 -18.9134 22.1048 -0.0 0.0 -0.0 2.45797 29.7626 -1.94664 -10.2511 18.415 -75.6903 0.747845 20.3276 -0.134073 50.3871 0.996658 6.15433 3.47663 -0.363253 -24.0867 0.0 0.0 0.0 3.50088 -5.82742 2.36139 -27.9449 0.117279 4.24456 39.8473 15.4124 -4.92526 -40.2267 0.0 0.0 -0.0 0.0 -0.0 4.64741 18.2466 -5.69136 -41.1216 0.539661 -6.15457 11.8637 -31.0788 1.82384 -11.1941 0.0 0.0 0.0 0.0 0.0 
2779.60789793 715.857 -1570.16782209 23.0910154998 73.4472680408 -21.3300518104 -2.28825 0.0534785 0.675416 -2.288 0.0103926 0.67745 -2.28761 -0.158649 0.658694 -2.28821 -0.0526319 0.675483 -19.4909 5.45315 5.41671 -19.4851 7.71271 7.25622 -0.0 0.0 -0.0 3.69754 1.72717 7.22196 1.64665 -15.67 53.6475 1.50458 -36.6956 0.499009 -85.2999 -8.4894 5.17711 4.56785 -16.8772 23.9573 -0.0 0.0 -0.0 1.90405 29.435 -0.780253 -11.8915 18.381 -75.5495 0.655585 17.9917 -0.103787 50.5403 1.00776 6.17051 3.70022 0.0714738 -25.5632 0.0 0.0 0.0 1.70157 -8.98578 4.16202 -25.5798 0.187836 3.88848 38.8426 18.3773 -4.88557 -40.1069 0.0 0.0 -0.0 0.0 -0.0 9.87871 12.3058 -4.59284 -40.9705 0.529662 -6.1336 9.82506 -29.211 1.4998 -14.1315 0.0 0.0 0.0 0.0 0.0 
2784.02006097 715.857 -1553.90961628 26.6716778182 75.5863492252 -25.0448145014 -2.28825 0.0534785 0.675416 -2.288 0.0103926 0.67745 -2.28761 -0.158649 0.658694 -2.28821 -0.0526319 0.675483 -19.4909 5.45315 5.41671 -19.4851 7.71271 7.25622 -0.0 0.0 -0.0 3.69754 1.72717 7.22196 1.64665 -15.67 53.6475 1.50458 -36.6956 0.499009 -85.2999 -8.4894 5.17711 4.56785 -16.8772 23.9573 -0.0 0.0 -0.0 1.90405 29.435 -0.780253 -11.8915 18.381 -75.5495 0.655585 17.9917 -0.103787 50.5403 1.00776 6.17051 3.70022 0.0714738 -25.5632 0.0 0.0 0.0 1.70157 -8.98578 4.16202 -25.5798 0.187836 3.88848 38.8426 18.3773 -4.88557 -40.1069 0.0 0.0 -0.0 0.0 -0.0 9.87871 12.3058 -4.59284 -40.9705 0.529662 -6.1336 9.82506 -29.211 1.4998 -14.1315 0.0 0.0 0.0 0.0 0.0 
2772.70325184 719.372 -1531.00879306 29.4105404698 78.1277632056 -28.1635974228 -2.48929 -0.0894697 0.40861 -2.4892 -0.115289 0.402089 -2.48996 -0.213067 0.359959 -2.49011 -0.153544 0.389091 -18.496 4.9253 4.46804 -18.4998 7.09641 6.08601 -0.0 0.0 -0.0 4.99219 1.49586 9.69163 4.8413 -11.4086 52.4625 1.68064 -39.7755 0.608017 -85.127 -8.46779 5.18145 4.20109 -13.7153 22.9796 -0.0 0.0 -0.0 2.02329 28.7844 -1.10802 -13.7917 17.1286 -73.8597 0.649502 17.8354 -0.101916 52.4103 1.14672 6.36555 3.75121 1.80588 -25.2258 0.0 0.0 0.0 -1.14098 -17.3229 7.04047 -16.5309 0.320811 2.50777 35.5771 25.3102 -4.73196 -40.1834 0.0 0.0 -0.0 0.0 -0.0 15.1051 9.50473 -2.68812 -43.1537 0.679498 -6.43403 13.3447 -25.2241 1.96531 -16.8914 0.0 0.0 0.0 0.0 0.0 
2723.25380521 718.891 -1506.70533152 28.0595804583 80.5886031362 -27.2423031859 -2.67831 -0.211055 0.189908 -2.67832 -0.222712 0.176093 -2.67905 -0.260329 0.113306 -2.67899 -0.239167 0.152998 -15.2479 4.62863 5.91521 -15.1731 5.3686 7.12186 -0.0 0.0 -0.0 6.47268 -0.97136 12.5388 14.3352 -5.27139 48.4768 2.10572 -46.2032 0.898319 -79.9644 -7.81732 5.28022 2.54397 -8.49993 13.6934 -0.0 0.0 -0.0 2.91593 25.5032 -3.38981 -20.4501 17.7754 -70.6655 0.5921 16.347 -0.0850444 53.7149 1.24741 6.49892 3.80167 2.13462 -25.4628 0.0 0.0 0.0 -7.8528 -29.1714 8.21908 -2.22338 0.0851393 0.33057 24.201 29.1686 -3.50138 -40.2161 0.0 0.0 -0.0 0.0 -0.0 26.6578 5.37884 -3.13217 -43.569 0.709296 -6.49054 13.954 -26.7037 2.06831 -21.2125 0.0 0.0 0.0 0.0 0.0 
2706.41124155 716.592 -1495.48901352 30.3643712786 81.8418628583 -29.4874864254 -2.68603 -0.242169 0.105329 -2.68606 -0.248381 0.0897058 -2.6865 -0.263063 0.023193 -2.68641 -0.256099 0.0644482 -14.7436 5.80007 4.9612 -14.7273 8.12036 6.58007 -0.0 0.0 -0.0 6.66339 -2.05263 12.9063 16.8143 -3.70277 47.7839 2.28231 -48.5007 1.02823 -80.1249 -7.83768 5.27804 2.12746 -5.93689 11.9185 -0.0 0.0 -0.0 2.88911 23.4538 -3.54198 -22.031 18.0874 -69.5833 0.632611 17.3999 -0.0968037 54.6254 1.31948 6.59063 3.50877 0.480725 -23.982 0.0 0.0 0.0 -9.82715 -28.6512 8.16954 0.103222 -0.00426426 -0.0152664 23.9116 29.2699 -3.46646 -40.2036 0.0 0.0 -0.0 0.0 -0.0 29.0923 5.01909 -3.42595 -41.1931 0.54441 -6.16448 14.2705 -27.6012 2.12465 -21.8531 0.0 0.0 0.0 0.0 0.0 
2686.84906277 717.006 -1493.12819924 32.6248986862 82.3805915215 -31.5732413978 -2.69428 -0.287198 -0.0283389 -2.69432 -0.284812 -0.0465568 -2.69413 -0.263416 -0.117889 -2.69404 -0.278728 -0.0748074 -14.8859 6.13452 5.35366 -14.8647 8.54248 7.07021 -0.0 0.0 -0.0 6.59687 -2.31992 12.7687 18.6638 -4.6921 47.7944 2.30729 -48.8098 1.04698 -80.6184 -7.90024 5.27099 2.61308 -6.16646 15.1901 -0.0 0.0 -0.0 3.08277 24.2441 -3.88094 -22.551 16.436 -70.7799 0.534597 14.833 -0.069589 54.1099 1.2785 6.53885 3.71458 1.97592 -24.8824 0.0 0.0 0.0 -11.8124 -32.0855 7.78263 1.25289 -0.0536163 -0.184779 26.8798 29.0101 -3.83717 -40.229 0.0 0.0 -0.0 0.0 -0.0 30.4851 5.14376 -3.66914 -40.0024 0.46692 -5.99862 15.1423 -27.4669 2.24564 -22.1296 0.0 0.0 0.0 0.0 0.0 
2685.9116728 717.006 -1495.75862329 31.4278678891 82.1201536255 -30.3651810102 -2.69428 -0.287198 -0.0283389 -2.69432 -0.284812 -0.0465568 -2.69413 -0.263416 -0.117889 -2.69404 -0.278728 -0.0748074 -14.8859 6.13452 5.35366 -14.8647 8.54248 7.07021 -0.0 0.0 -0.0 6.59687 -2.31992 12.7687 18.6638 -4.6921 47.7944 2.30729 -48.8098 1.04698 -80.6184 -7.90024 5.27099 2.61308 -6.16646 15.1901 -0.0 0.0 -0.0 3.08277 24.2441 -3.88094 -22.551 16.436 -70.7799 0.534597 14.833 -0.069589 54.1099 1.2785 6.53885 3.71458 1.97592 -24.8824 0.0 0.0 0.0 -11.8124 -32.0855 7.78263 1.25289 -0.0536163 -0.184779 26.8798 29.0101 -3.83717 -40.229 0.0 0.0 -0.0 0.0 -0.0 30.4851 5.14376 -3.66914 -40.0024 0.46692 -5.99862 15.1423 -27.4669 2.24564 -22.1296 0.0 0.0 0.0 0.0 0.0 
2685.65152178 717.006 -1496.49663681 31.1065804327 82.0465772514 -30.0408021492 -2.69428 -0.287198 -0.0283389 -2.69432 -0.284812 -0.0465568 -2.69413 -0.263416 -0.117889 -2.69404 -0.278728 -0.0748074 -14.8859 6.13452 5.35366 -14.8647 8.54248 7.07021 -0.0 0.0 -0.0 6.59687 -2.31992 12.7687 18.6638 -4.6921 47.7944 2.30729 -48.8098 1.04698 -80.6184 -7.90024 5.27099 2.61308 -6.16646 15.1901 -0.0 0.0 -0.0 3.08277 24.2441 -3.88094 -22.551 16.436 -70.7799 0.534597 14.833 -0.069589 54.1099 1.2785 6.53885 3.71458 1.97592 -24.8824 0.0 0.0 0.0 -11.8124 -32.0855 7.78263 1.25289 -0.0536163 -0.184779 26.8798 29.0101 -3.83717 -40.229 0.0 0.0 -0.0 0.0 -0.0 30.4851 5.14376 -3.66914 -40.0024 0.46692 -5.99862 15.1423 -27.4669 2.24564 -22.1296 0.0 0.0 0.0 0.0 0.0 
2645.65255653 708.007 -1501.49177228 20.745905361 79.9726501388 -19.265037097 -2.76929 -0.206513 -0.252282 -2.76928 -0.190041 -0.264912 -2.76834 -0.11553 -0.304871 -2.76843 -0.162229 -0.2828 -13.8444 5.06917 4.6395 -13.817 6.82145 5.98184 -0.0 0.0 -0.0 4.30813 -4.09673 8.11044 22.2667 -1.60087 52.9425 2.66447 -52.842 1.32405 -76.4404 -7.36879 5.31349 0.331676 -2.76183 1.06053 -0.0 0.0 -0.0 3.4557 23.8047 -4.73331 -23.2743 15.5303 -69.6266 0.414082 11.5921 -0.0420323 52.7467 1.17239 6.40016 3.49949 0.327319 -23.9761 0.0 0.0 0.0 -13.7468 -29.3446 8.67699 2.15258 -0.094609 -0.316739 20.9047 28.7363 -3.05803 -40.2507 0.0 0.0 -0.0 0.0 -0.0 28.4827 4.69303 -3.22489 -10.5383 -0.28842 -1.5893 10.0972 -23.1492 1.48715 -26.7115 0.0 0.0 0.0 0.0 0.0 
2644.27625423 708.007 -1505.91403316 19.83274815 79.5259635669 -18.3370758437 -2.76929 -0.206513 -0.252282 -2.76928 -0.190041 -0.264912 -2.76834 -0.11553 -0.304871 -2.76843 -0.162229 -0.2828 -13.8444 5.06917 4.6395 -13.817 6.82145 5.98184 -0.0 0.0 -0.0 4.30813 -4.09673 8.11044 22.2667 -1.60087 52.9425 2.66447 -52.842 1.32405 -76.4404 -7.36879 5.31349 0.331676 -2.76183 1.06053 -0.0 0.0 -0.0 3.4557 23.8047 -4.73331 -23.2743 15.5303 -69.6266 0.414082 11.5921 -0.0420323 52.7467 1.17239 6.40016 3.49949 0.327319 -23.9761 0.0 0.0 0.0 -13.7468 -29.3446 8.67699 2.15258 -0.094609 -0.316739 20.9047 28.7363 -3.05803 -40.2507 0.0 0.0 -0.0 0.0 -0.0 28.4827 4.69303 -3.22489 -10.5383 -0.28842 -1.5893 10.0972 -23.1492 1.48715 -26.7115 0.0 0.0 0.0 0.0 0.0 
2621.53447551 707.188 -1513.06384451 17.6564360572 79.7782617145 -16.0687756691 -2.79994 -0.252134 -0.331977 -2.79991 -0.230499 -0.347348 -2.7984 -0.133223 -0.395008 -2.79856 -0.193935 -0.369011 -13.9686 4.79777 4.55889 -13.9395 6.36553 5.82794 -0.0 0.0 -0.0 3.5992 -5.03948 6.62813 23.3596 -0.927643 55.5075 2.79725 -54.1731 1.43081 -75.1043 -7.1982 5.31883 -0.339715 -1.5697 -2.94104 -0.0 0.0 -0.0 3.70015 23.8079 -5.26257 -23.0432 14.8759 -69.3863 0.362023 10.1673 -0.0322058 52.2276 1.13286 6.34669 3.37037 -0.201868 -23.2446 0.0 0.0 0.0 -14.8126 -28.9708 9.04284 2.3334 -0.103098 -0.343183 18.3376 28.0371 -2.69733 -40.2095 0.0 0.0 -0.0 0.0 -0.0 28.1616 4.67948 -3.68534 -0.15169 -0.0062165 -0.0224482 7.19304 -22.7977 1.06702 -28.3833 0.0 0.0 0.0 0.0 0.0 
